<svg xmlns="http://www.w3.org/2000/svg" viewBox="0 0 19.04 18.75">
    <defs>
        <style>.cls-1{fill:#fff;}</style>
    </defs>
    <title>star</title>
    <g id="Calque_2" data-name="Calque 2">
        <g id="Calque_1-2" data-name="Calque 1">
            <polygon class="cls-1" points="9.52 12.4 7.07 16.39 7.76 11.76 3.32 13.25 6.83 10.14 2.47 8.42 7.15 8.3 4.92 4.18 8.58 7.09 9.52 2.5 10.45 7.09 14.12 4.18 11.89 8.3 16.57 8.42 12.21 10.14 15.72 13.25 11.28 11.76 11.97 16.39 9.52 12.4"/>
            <path d="M9.52,5,9.8,6.4,10.13,8,11.4,7l1.11-.88-.67,1.24-.78,1.44,1.63,0,1.42,0-1.32.52L11.27,10l1.22,1.09,1.06.93-1.34-.44L10.66,11l.24,1.61.21,1.4-.74-1.21-.85-1.39-.85,1.39L7.93,14l.2-1.4L8.38,11l-1.55.52L5.49,12l1.06-.93L7.77,10,6.25,9.38,4.93,8.86l1.42,0L8,8.78,7.2,7.34,6.52,6.1,7.63,7,8.91,8,9.24,6.4,9.52,5m0-5L8.26,6.2,3.31,2.26l3,5.56L0,8l5.88,2.32L1.15,14.5l6-2-.94,6.26,3.31-5.39,3.3,5.39-.93-6.26,6,2-4.74-4.19L19,8l-6.32-.17,3-5.56-5,3.94L9.52,0Z"/>
        </g>
    </g>
</svg>